<svg width="606" height="111" viewBox="0 0 606 111" fill="none" xmlns="http://www.w3.org/2000/svg">
<path d="M17.564 39.52C14.2707 39.52 11.4453 38.9827 9.088 37.908C6.76533 36.8333 4.94533 35.256 3.628 33.176C2.34533 31.096 1.63467 28.5133 1.496 25.428C1.46133 24.0067 1.444 22.4813 1.444 20.852C1.444 19.2227 1.46133 17.6627 1.496 16.172C1.63467 13.156 2.36267 10.608 3.68 8.528C4.99733 6.41333 6.83467 4.81867 9.192 3.744C11.5493 2.63466 14.34 2.08 17.564 2.08C19.852 2.08 21.9667 2.37467 23.908 2.964C25.8493 3.51866 27.548 4.35066 29.004 5.46C30.46 6.53467 31.5867 7.852 32.384 9.412C33.216 10.9373 33.6493 12.6707 33.684 14.612C33.7187 14.924 33.6147 15.184 33.372 15.392C33.164 15.6 32.904 15.704 32.592 15.704H25.572C25.1213 15.704 24.7747 15.6173 24.532 15.444C24.2893 15.236 24.0813 14.872 23.908 14.352C23.4227 12.5147 22.6253 11.2667 21.516 10.608C20.4413 9.91467 19.1067 9.568 17.512 9.568C15.6053 9.568 14.0973 10.1053 12.988 11.18C11.8787 12.22 11.272 13.9707 11.168 16.432C11.064 19.2747 11.064 22.1867 11.168 25.168C11.272 27.6293 11.8787 29.3973 12.988 30.472C14.0973 31.512 15.6053 32.032 17.512 32.032C19.1067 32.032 20.4587 31.6853 21.568 30.992C22.6773 30.2987 23.4573 29.0507 23.908 27.248C24.0467 26.728 24.2373 26.3813 24.48 26.208C24.7573 26 25.1213 25.896 25.572 25.896H32.592C32.904 25.896 33.164 26 33.372 26.208C33.6147 26.416 33.7187 26.676 33.684 26.988C33.6493 28.9293 33.216 30.68 32.384 32.24C31.5867 33.7653 30.46 35.0827 29.004 36.192C27.548 37.2667 25.8493 38.0987 23.908 38.688C21.9667 39.2427 19.852 39.52 17.564 39.52ZM51.3717 39.52C48.4597 39.52 45.9984 39.052 43.9877 38.116C42.0117 37.18 40.4864 35.8453 39.4117 34.112C38.3717 32.344 37.7824 30.2467 37.6437 27.82C37.6091 27.1267 37.5917 26.3467 37.5917 25.48C37.5917 24.5787 37.6091 23.7987 37.6437 23.14C37.7824 20.6787 38.4064 18.5813 39.5157 16.848C40.6251 15.1147 42.1677 13.78 44.1437 12.844C46.1544 11.908 48.5637 11.44 51.3717 11.44C54.2144 11.44 56.6237 11.908 58.5997 12.844C60.6104 13.78 62.1704 15.1147 63.2797 16.848C64.3891 18.5813 65.0131 20.6787 65.1517 23.14C65.1864 23.7987 65.2037 24.5787 65.2037 25.48C65.2037 26.3467 65.1864 27.1267 65.1517 27.82C65.0131 30.2467 64.4064 32.344 63.3317 34.112C62.2917 35.8453 60.7664 37.18 58.7557 38.116C56.7797 39.052 54.3184 39.52 51.3717 39.52ZM51.3717 33.176C52.9317 33.176 54.0584 32.708 54.7517 31.772C55.4797 30.836 55.8957 29.432 55.9997 27.56C56.0344 27.04 56.0517 26.3467 56.0517 25.48C56.0517 24.6133 56.0344 23.92 55.9997 23.4C55.8957 21.5627 55.4797 20.176 54.7517 19.24C54.0584 18.2693 52.9317 17.784 51.3717 17.784C49.8464 17.784 48.7197 18.2693 47.9917 19.24C47.2637 20.176 46.8651 21.5627 46.7957 23.4C46.7611 23.92 46.7437 24.6133 46.7437 25.48C46.7437 26.3467 46.7611 27.04 46.7957 27.56C46.8651 29.432 47.2637 30.836 47.9917 31.772C48.7197 32.708 49.8464 33.176 51.3717 33.176ZM71.618 39C71.2367 39 70.9247 38.8787 70.682 38.636C70.4393 38.3933 70.318 38.0813 70.318 37.7V13.26C70.318 12.8787 70.4393 12.5667 70.682 12.324C70.9247 12.0813 71.2367 11.96 71.618 11.96H77.598C77.9793 11.96 78.2913 12.0813 78.534 12.324C78.7767 12.5667 78.898 12.8787 78.898 13.26V15.236C79.7993 14.1613 80.978 13.26 82.434 12.532C83.89 11.804 85.606 11.44 87.582 11.44C89.5927 11.44 91.3607 11.8907 92.886 12.792C94.446 13.6933 95.6593 15.028 96.526 16.796C97.4273 18.5293 97.878 20.6613 97.878 23.192V37.7C97.878 38.0813 97.7393 38.3933 97.462 38.636C97.2193 38.8787 96.9247 39 96.578 39H90.026C89.6793 39 89.3673 38.8787 89.09 38.636C88.8473 38.3933 88.726 38.0813 88.726 37.7V23.504C88.726 21.8747 88.3273 20.6267 87.53 19.76C86.7673 18.8587 85.6233 18.408 84.098 18.408C82.6767 18.408 81.5327 18.8587 80.666 19.76C79.834 20.6267 79.418 21.8747 79.418 23.504V37.7C79.418 38.0813 79.2793 38.3933 79.002 38.636C78.7593 38.8787 78.4647 39 78.118 39H71.618ZM117.259 39C115.041 39 113.117 38.6533 111.487 37.96C109.893 37.232 108.662 36.1227 107.795 34.632C106.929 33.1067 106.495 31.148 106.495 28.756V18.772H102.439C102.058 18.772 101.729 18.6507 101.451 18.408C101.209 18.1653 101.087 17.8533 101.087 17.472V13.26C101.087 12.8787 101.209 12.5667 101.451 12.324C101.729 12.0813 102.058 11.96 102.439 11.96H106.495V3.38C106.495 2.99866 106.617 2.68667 106.859 2.444C107.137 2.20133 107.449 2.08 107.795 2.08H113.827C114.209 2.08 114.521 2.20133 114.763 2.444C115.006 2.68667 115.127 2.99866 115.127 3.38V11.96H121.627C122.009 11.96 122.321 12.0813 122.563 12.324C122.806 12.5667 122.927 12.8787 122.927 13.26V17.472C122.927 17.8533 122.806 18.1653 122.563 18.408C122.321 18.6507 122.009 18.772 121.627 18.772H115.127V28.028C115.127 29.2067 115.353 30.1427 115.803 30.836C116.254 31.5293 117.017 31.876 118.091 31.876H122.095C122.477 31.876 122.789 31.9973 123.031 32.24C123.274 32.4827 123.395 32.7947 123.395 33.176V37.7C123.395 38.0813 123.274 38.3933 123.031 38.636C122.789 38.8787 122.477 39 122.095 39H117.259ZM129.001 39C128.619 39 128.307 38.8787 128.065 38.636C127.822 38.3933 127.701 38.0813 127.701 37.7V13.26C127.701 12.9133 127.822 12.6187 128.065 12.376C128.307 12.0987 128.619 11.96 129.001 11.96H134.981C135.362 11.96 135.674 12.0987 135.917 12.376C136.159 12.6187 136.281 12.9133 136.281 13.26V15.34C137.217 14.2653 138.326 13.4333 139.609 12.844C140.926 12.2547 142.399 11.96 144.029 11.96H146.317C146.663 11.96 146.958 12.0813 147.201 12.324C147.478 12.5667 147.617 12.8787 147.617 13.26V18.616C147.617 18.9627 147.478 19.2747 147.201 19.552C146.958 19.7947 146.663 19.916 146.317 19.916H141.273C139.851 19.916 138.742 20.3147 137.945 21.112C137.182 21.8747 136.801 22.9667 136.801 24.388V37.7C136.801 38.0813 136.662 38.3933 136.385 38.636C136.142 38.8787 135.83 39 135.449 39H129.001ZM163.903 39.52C160.991 39.52 158.53 39.052 156.519 38.116C154.543 37.18 153.018 35.8453 151.943 34.112C150.903 32.344 150.314 30.2467 150.175 27.82C150.14 27.1267 150.123 26.3467 150.123 25.48C150.123 24.5787 150.14 23.7987 150.175 23.14C150.314 20.6787 150.938 18.5813 152.047 16.848C153.156 15.1147 154.699 13.78 156.675 12.844C158.686 11.908 161.095 11.44 163.903 11.44C166.746 11.44 169.155 11.908 171.131 12.844C173.142 13.78 174.702 15.1147 175.811 16.848C176.92 18.5813 177.544 20.6787 177.683 23.14C177.718 23.7987 177.735 24.5787 177.735 25.48C177.735 26.3467 177.718 27.1267 177.683 27.82C177.544 30.2467 176.938 32.344 175.863 34.112C174.823 35.8453 173.298 37.18 171.287 38.116C169.311 39.052 166.85 39.52 163.903 39.52ZM163.903 33.176C165.463 33.176 166.59 32.708 167.283 31.772C168.011 30.836 168.427 29.432 168.531 27.56C168.566 27.04 168.583 26.3467 168.583 25.48C168.583 24.6133 168.566 23.92 168.531 23.4C168.427 21.5627 168.011 20.176 167.283 19.24C166.59 18.2693 165.463 17.784 163.903 17.784C162.378 17.784 161.251 18.2693 160.523 19.24C159.795 20.176 159.396 21.5627 159.327 23.4C159.292 23.92 159.275 24.6133 159.275 25.48C159.275 26.3467 159.292 27.04 159.327 27.56C159.396 29.432 159.795 30.836 160.523 31.772C161.251 32.708 162.378 33.176 163.903 33.176ZM184.149 39C183.768 39 183.456 38.8787 183.213 38.636C182.971 38.3933 182.849 38.0813 182.849 37.7V3.38C182.849 2.99866 182.971 2.68667 183.213 2.444C183.456 2.20133 183.768 2.08 184.149 2.08H190.285C190.667 2.08 190.979 2.20133 191.221 2.444C191.464 2.68667 191.585 2.99866 191.585 3.38V37.7C191.585 38.0813 191.464 38.3933 191.221 38.636C190.979 38.8787 190.667 39 190.285 39H184.149ZM210.208 39.52C206.117 39.52 202.859 38.4107 200.432 36.192C198.005 33.9733 196.74 30.68 196.636 26.312C196.636 26.0693 196.636 25.7573 196.636 25.376C196.636 24.9947 196.636 24.7 196.636 24.492C196.74 21.7533 197.347 19.4133 198.456 17.472C199.6 15.496 201.16 14.0053 203.136 13C205.147 11.96 207.487 11.44 210.156 11.44C213.207 11.44 215.72 12.0467 217.696 13.26C219.707 14.4733 221.215 16.12 222.22 18.2C223.225 20.28 223.728 22.6547 223.728 25.324V26.572C223.728 26.9533 223.589 27.2653 223.312 27.508C223.069 27.7507 222.775 27.872 222.428 27.872H205.788C205.788 27.9067 205.788 27.9587 205.788 28.028C205.788 28.0973 205.788 28.1667 205.788 28.236C205.823 29.2413 205.996 30.16 206.308 30.992C206.62 31.824 207.105 32.4827 207.764 32.968C208.423 33.4533 209.22 33.696 210.156 33.696C210.849 33.696 211.421 33.592 211.872 33.384C212.357 33.1413 212.756 32.8813 213.068 32.604C213.38 32.292 213.623 32.032 213.796 31.824C214.108 31.4773 214.351 31.2693 214.524 31.2C214.732 31.096 215.044 31.044 215.46 31.044H221.908C222.255 31.044 222.532 31.148 222.74 31.356C222.983 31.5293 223.087 31.7893 223.052 32.136C223.017 32.7253 222.723 33.436 222.168 34.268C221.613 35.1 220.799 35.932 219.724 36.764C218.684 37.5613 217.367 38.22 215.772 38.74C214.177 39.26 212.323 39.52 210.208 39.52ZM205.788 22.724H214.576V22.62C214.576 21.5107 214.403 20.54 214.056 19.708C213.744 18.876 213.241 18.2347 212.548 17.784C211.889 17.3333 211.092 17.108 210.156 17.108C209.22 17.108 208.423 17.3333 207.764 17.784C207.14 18.2347 206.655 18.876 206.308 19.708C205.961 20.54 205.788 21.5107 205.788 22.62V22.724ZM250.801 39.52C248.548 39.52 246.624 39.2773 245.029 38.792C243.469 38.272 242.187 37.648 241.181 36.92C240.211 36.192 239.483 35.4467 238.997 34.684C238.512 33.8867 238.252 33.2107 238.217 32.656C238.183 32.2747 238.304 31.9627 238.581 31.72C238.859 31.4427 239.153 31.304 239.465 31.304H245.393C245.497 31.304 245.584 31.3213 245.653 31.356C245.723 31.3907 245.827 31.46 245.965 31.564C246.416 31.8067 246.867 32.1187 247.317 32.5C247.768 32.8467 248.288 33.1587 248.877 33.436C249.467 33.7133 250.177 33.852 251.009 33.852C251.98 33.852 252.795 33.6613 253.453 33.28C254.112 32.8987 254.441 32.3267 254.441 31.564C254.441 31.0093 254.285 30.5587 253.973 30.212C253.661 29.8307 253.02 29.4667 252.049 29.12C251.113 28.7733 249.692 28.4267 247.785 28.08C245.983 27.664 244.405 27.1267 243.053 26.468C241.701 25.7747 240.661 24.8907 239.933 23.816C239.205 22.7067 238.841 21.372 238.841 19.812C238.841 18.4253 239.292 17.0907 240.193 15.808C241.095 14.5253 242.412 13.4853 244.145 12.688C245.879 11.856 248.011 11.44 250.541 11.44C252.552 11.44 254.285 11.6827 255.741 12.168C257.232 12.6187 258.48 13.208 259.485 13.936C260.525 14.664 261.305 15.4093 261.825 16.172C262.345 16.9347 262.623 17.628 262.657 18.252C262.692 18.5987 262.588 18.9107 262.345 19.188C262.103 19.4307 261.825 19.552 261.513 19.552H256.105C255.967 19.552 255.828 19.5347 255.689 19.5C255.551 19.4307 255.429 19.3613 255.325 19.292C254.909 19.084 254.493 18.8067 254.077 18.46C253.661 18.1133 253.176 17.8013 252.621 17.524C252.067 17.2467 251.373 17.108 250.541 17.108C249.605 17.108 248.877 17.316 248.357 17.732C247.837 18.148 247.577 18.6853 247.577 19.344C247.577 19.7947 247.716 20.2107 247.993 20.592C248.305 20.9733 248.912 21.32 249.813 21.632C250.749 21.944 252.188 22.2907 254.129 22.672C256.521 23.0533 258.428 23.6773 259.849 24.544C261.271 25.376 262.276 26.364 262.865 27.508C263.455 28.6173 263.749 29.796 263.749 31.044C263.749 32.708 263.247 34.1813 262.241 35.464C261.271 36.7467 259.815 37.752 257.873 38.48C255.932 39.1733 253.575 39.52 250.801 39.52ZM278.348 39.52C276.372 39.52 274.604 39.0693 273.044 38.168C271.518 37.2667 270.322 35.9493 269.456 34.216C268.589 32.448 268.156 30.2987 268.156 27.768V13.26C268.156 12.8787 268.277 12.5667 268.52 12.324C268.762 12.0813 269.074 11.96 269.456 11.96H275.956C276.337 11.96 276.649 12.0813 276.892 12.324C277.134 12.5667 277.256 12.8787 277.256 13.26V27.456C277.256 30.8533 278.781 32.552 281.832 32.552C283.253 32.552 284.38 32.1187 285.212 31.252C286.078 30.3507 286.512 29.0853 286.512 27.456V13.26C286.512 12.8787 286.633 12.5667 286.876 12.324C287.118 12.0813 287.43 11.96 287.812 11.96H294.312C294.693 11.96 295.005 12.0813 295.248 12.324C295.49 12.5667 295.612 12.8787 295.612 13.26V37.7C295.612 38.0813 295.49 38.3933 295.248 38.636C295.005 38.8787 294.693 39 294.312 39H288.28C287.933 39 287.621 38.8787 287.344 38.636C287.101 38.3933 286.98 38.0813 286.98 37.7V35.724C286.078 36.972 284.9 37.9253 283.444 38.584C282.022 39.208 280.324 39.52 278.348 39.52ZM309.84 39.52C307.968 39.52 306.287 39.1733 304.796 38.48C303.34 37.752 302.179 36.7813 301.312 35.568C300.445 34.3547 300.012 32.9853 300.012 31.46C300.012 28.9987 301.017 27.0573 303.028 25.636C305.039 24.18 307.708 23.192 311.036 22.672L317.536 21.684V20.956C317.536 19.708 317.276 18.7547 316.756 18.096C316.236 17.4373 315.283 17.108 313.896 17.108C312.925 17.108 312.128 17.2987 311.504 17.68C310.915 18.0613 310.447 18.5813 310.1 19.24C309.788 19.6907 309.355 19.916 308.8 19.916H302.976C302.595 19.916 302.3 19.812 302.092 19.604C301.884 19.3613 301.797 19.084 301.832 18.772C301.832 18.148 302.057 17.4373 302.508 16.64C302.993 15.808 303.721 14.9933 304.692 14.196C305.663 13.3987 306.911 12.74 308.436 12.22C309.961 11.7 311.799 11.44 313.948 11.44C316.201 11.44 318.125 11.7 319.72 12.22C321.315 12.74 322.597 13.468 323.568 14.404C324.573 15.34 325.319 16.4493 325.804 17.732C326.289 18.98 326.532 20.3667 326.532 21.892V37.7C326.532 38.0813 326.393 38.3933 326.116 38.636C325.873 38.8787 325.579 39 325.232 39H319.2C318.819 39 318.507 38.8787 318.264 38.636C318.021 38.3933 317.9 38.0813 317.9 37.7V35.88C317.449 36.5387 316.843 37.1453 316.08 37.7C315.317 38.2547 314.416 38.688 313.376 39C312.371 39.3467 311.192 39.52 309.84 39.52ZM312.284 33.592C313.289 33.592 314.191 33.384 314.988 32.968C315.82 32.5173 316.461 31.8413 316.912 30.94C317.397 30.004 317.64 28.8427 317.64 27.456V26.728L313.22 27.508C311.591 27.7853 310.395 28.2187 309.632 28.808C308.904 29.3627 308.54 30.0213 308.54 30.784C308.54 31.3733 308.713 31.876 309.06 32.292C309.407 32.708 309.857 33.0373 310.412 33.28C310.967 33.488 311.591 33.592 312.284 33.592ZM343.528 39.52C341.275 39.52 339.351 39.2773 337.756 38.792C336.196 38.272 334.913 37.648 333.908 36.92C332.937 36.192 332.209 35.4467 331.724 34.684C331.239 33.8867 330.979 33.2107 330.944 32.656C330.909 32.2747 331.031 31.9627 331.308 31.72C331.585 31.4427 331.88 31.304 332.192 31.304H338.12C338.224 31.304 338.311 31.3213 338.38 31.356C338.449 31.3907 338.553 31.46 338.692 31.564C339.143 31.8067 339.593 32.1187 340.044 32.5C340.495 32.8467 341.015 33.1587 341.604 33.436C342.193 33.7133 342.904 33.852 343.736 33.852C344.707 33.852 345.521 33.6613 346.18 33.28C346.839 32.8987 347.168 32.3267 347.168 31.564C347.168 31.0093 347.012 30.5587 346.7 30.212C346.388 29.8307 345.747 29.4667 344.776 29.12C343.84 28.7733 342.419 28.4267 340.512 28.08C338.709 27.664 337.132 27.1267 335.78 26.468C334.428 25.7747 333.388 24.8907 332.66 23.816C331.932 22.7067 331.568 21.372 331.568 19.812C331.568 18.4253 332.019 17.0907 332.92 15.808C333.821 14.5253 335.139 13.4853 336.872 12.688C338.605 11.856 340.737 11.44 343.268 11.44C345.279 11.44 347.012 11.6827 348.468 12.168C349.959 12.6187 351.207 13.208 352.212 13.936C353.252 14.664 354.032 15.4093 354.552 16.172C355.072 16.9347 355.349 17.628 355.384 18.252C355.419 18.5987 355.315 18.9107 355.072 19.188C354.829 19.4307 354.552 19.552 354.24 19.552H348.832C348.693 19.552 348.555 19.5347 348.416 19.5C348.277 19.4307 348.156 19.3613 348.052 19.292C347.636 19.084 347.22 18.8067 346.804 18.46C346.388 18.1133 345.903 17.8013 345.348 17.524C344.793 17.2467 344.1 17.108 343.268 17.108C342.332 17.108 341.604 17.316 341.084 17.732C340.564 18.148 340.304 18.6853 340.304 19.344C340.304 19.7947 340.443 20.2107 340.72 20.592C341.032 20.9733 341.639 21.32 342.54 21.632C343.476 21.944 344.915 22.2907 346.856 22.672C349.248 23.0533 351.155 23.6773 352.576 24.544C353.997 25.376 355.003 26.364 355.592 27.508C356.181 28.6173 356.476 29.796 356.476 31.044C356.476 32.708 355.973 34.1813 354.968 35.464C353.997 36.7467 352.541 37.752 350.6 38.48C348.659 39.1733 346.301 39.52 343.528 39.52ZM596.099 42.9C595.821 42.9 595.579 42.7787 595.371 42.536C595.163 42.328 595.076 42.068 595.111 41.756L596.723 31.564C596.792 31.1133 596.965 30.7147 597.243 30.368C597.555 29.9867 598.005 29.796 598.595 29.796H604.679C604.956 29.796 605.181 29.9 605.355 30.108C605.563 30.316 605.667 30.5413 605.667 30.784C605.667 30.992 605.632 31.2 605.563 31.408L601.611 41.444C601.472 41.7907 601.264 42.12 600.987 42.432C600.709 42.744 600.293 42.9 599.739 42.9H596.099ZM13.196 101.52C10.9427 101.52 9.01867 101.277 7.424 100.792C5.864 100.272 4.58133 99.648 3.576 98.92C2.60533 98.192 1.87733 97.4467 1.392 96.684C0.906667 95.8867 0.646667 95.2107 0.612 94.656C0.577333 94.2747 0.698667 93.9627 0.976 93.72C1.25333 93.4427 1.548 93.304 1.86 93.304H7.788C7.892 93.304 7.97867 93.3213 8.048 93.356C8.11733 93.3907 8.22133 93.46 8.36 93.564C8.81067 93.8067 9.26133 94.1187 9.712 94.5C10.1627 94.8467 10.6827 95.1587 11.272 95.436C11.8613 95.7133 12.572 95.852 13.404 95.852C14.3747 95.852 15.1893 95.6613 15.848 95.28C16.5067 94.8987 16.836 94.3267 16.836 93.564C16.836 93.0093 16.68 92.5587 16.368 92.212C16.056 91.8307 15.4147 91.4667 14.444 91.12C13.508 90.7733 12.0867 90.4267 10.18 90.08C8.37733 89.664 6.8 89.1267 5.448 88.468C4.096 87.7747 3.056 86.8907 2.328 85.816C1.6 84.7067 1.236 83.372 1.236 81.812C1.236 80.4253 1.68667 79.0907 2.588 77.808C3.48933 76.5253 4.80667 75.4853 6.54 74.688C8.27333 73.856 10.4053 73.44 12.936 73.44C14.9467 73.44 16.68 73.6827 18.136 74.168C19.6267 74.6187 20.8747 75.208 21.88 75.936C22.92 76.664 23.7 77.4093 24.22 78.172C24.74 78.9347 25.0173 79.628 25.052 80.252C25.0867 80.5987 24.9827 80.9107 24.74 81.188C24.4973 81.4307 24.22 81.552 23.908 81.552H18.5C18.3613 81.552 18.2227 81.5347 18.084 81.5C17.9453 81.4307 17.824 81.3613 17.72 81.292C17.304 81.084 16.888 80.8067 16.472 80.46C16.056 80.1133 15.5707 79.8013 15.016 79.524C14.4613 79.2467 13.768 79.108 12.936 79.108C12 79.108 11.272 79.316 10.752 79.732C10.232 80.148 9.972 80.6853 9.972 81.344C9.972 81.7947 10.1107 82.2107 10.388 82.592C10.7 82.9733 11.3067 83.32 12.208 83.632C13.144 83.944 14.5827 84.2907 16.524 84.672C18.916 85.0533 20.8227 85.6773 22.244 86.544C23.6653 87.376 24.6707 88.364 25.26 89.508C25.8493 90.6173 26.144 91.796 26.144 93.044C26.144 94.708 25.6413 96.1813 24.636 97.464C23.6653 98.7467 22.2093 99.752 20.268 100.48C18.3267 101.173 15.9693 101.52 13.196 101.52ZM43.2902 101.52C39.1995 101.52 35.9409 100.411 33.5142 98.192C31.0875 95.9733 29.8222 92.68 29.7182 88.312C29.7182 88.0693 29.7182 87.7573 29.7182 87.376C29.7182 86.9947 29.7182 86.7 29.7182 86.492C29.8222 83.7533 30.4289 81.4133 31.5382 79.472C32.6822 77.496 34.2422 76.0053 36.2182 75C38.2289 73.96 40.5689 73.44 43.2382 73.44C46.2889 73.44 48.8022 74.0467 50.7782 75.26C52.7889 76.4733 54.2969 78.12 55.3022 80.2C56.3075 82.28 56.8102 84.6547 56.8102 87.324V88.572C56.8102 88.9533 56.6715 89.2653 56.3942 89.508C56.1515 89.7507 55.8569 89.872 55.5102 89.872H38.8702C38.8702 89.9067 38.8702 89.9587 38.8702 90.028C38.8702 90.0973 38.8702 90.1667 38.8702 90.236C38.9049 91.2413 39.0782 92.16 39.3902 92.992C39.7022 93.824 40.1875 94.4827 40.8462 94.968C41.5049 95.4533 42.3022 95.696 43.2382 95.696C43.9315 95.696 44.5035 95.592 44.9542 95.384C45.4395 95.1413 45.8382 94.8813 46.1502 94.604C46.4622 94.292 46.7049 94.032 46.8782 93.824C47.1902 93.4773 47.4329 93.2693 47.6062 93.2C47.8142 93.096 48.1262 93.044 48.5422 93.044H54.9902C55.3369 93.044 55.6142 93.148 55.8222 93.356C56.0649 93.5293 56.1689 93.7893 56.1342 94.136C56.0995 94.7253 55.8049 95.436 55.2502 96.268C54.6955 97.1 53.8809 97.932 52.8062 98.764C51.7662 99.5613 50.4489 100.22 48.8542 100.74C47.2595 101.26 45.4049 101.52 43.2902 101.52ZM38.8702 84.724H47.6582V84.62C47.6582 83.5107 47.4849 82.54 47.1382 81.708C46.8262 80.876 46.3235 80.2347 45.6302 79.784C44.9715 79.3333 44.1742 79.108 43.2382 79.108C42.3022 79.108 41.5049 79.3333 40.8462 79.784C40.2222 80.2347 39.7369 80.876 39.3902 81.708C39.0435 82.54 38.8702 83.5107 38.8702 84.62V84.724ZM62.9852 101C62.6039 101 62.2919 100.879 62.0492 100.636C61.8065 100.393 61.6852 100.081 61.6852 99.7V75.26C61.6852 74.8787 61.8065 74.5667 62.0492 74.324C62.2919 74.0813 62.6039 73.96 62.9852 73.96H68.6532C69.0345 73.96 69.3465 74.0813 69.5892 74.324C69.8319 74.5667 69.9532 74.8787 69.9532 75.26V77.028C70.6465 76.092 71.6172 75.2773 72.8652 74.584C74.1132 73.856 75.5865 73.4747 77.2852 73.44C81.2719 73.3707 84.0105 74.8787 85.5012 77.964C86.2985 76.6467 87.4425 75.572 88.9332 74.74C90.4239 73.8733 92.0532 73.44 93.8212 73.44C95.6239 73.44 97.2359 73.856 98.6572 74.688C100.113 75.4853 101.275 76.7333 102.141 78.432C103.008 80.096 103.441 82.2627 103.441 84.932V99.7C103.441 100.081 103.303 100.393 103.025 100.636C102.783 100.879 102.488 101 102.141 101H96.1092C95.7279 101 95.3985 100.879 95.1212 100.636C94.8785 100.393 94.7572 100.081 94.7572 99.7V85.296C94.7572 84.0827 94.5839 83.1293 94.2372 82.436C93.8905 81.708 93.4225 81.188 92.8332 80.876C92.2439 80.564 91.5679 80.408 90.8052 80.408C90.1812 80.408 89.5572 80.564 88.9332 80.876C88.3439 81.188 87.8585 81.708 87.4772 82.436C87.1305 83.1293 86.9572 84.0827 86.9572 85.296V99.7C86.9572 100.081 86.8359 100.393 86.5932 100.636C86.3505 100.879 86.0385 101 85.6572 101H79.6252C79.2439 101 78.9319 100.879 78.6892 100.636C78.4465 100.393 78.3252 100.081 78.3252 99.7V85.296C78.3252 84.0827 78.1345 83.1293 77.7532 82.436C77.3719 81.708 76.8865 81.188 76.2972 80.876C75.7079 80.564 75.0492 80.408 74.3212 80.408C73.6972 80.408 73.0732 80.564 72.4492 80.876C71.8599 81.188 71.3745 81.708 70.9932 82.436C70.6465 83.1293 70.4732 84.0653 70.4732 85.244V99.7C70.4732 100.081 70.3345 100.393 70.0572 100.636C69.8145 100.879 69.5025 101 69.1212 101H62.9852ZM121.638 110.88C121.256 110.88 120.944 110.759 120.702 110.516C120.459 110.273 120.338 109.961 120.338 109.58V75.26C120.338 74.8787 120.459 74.5667 120.702 74.324C120.944 74.0813 121.256 73.96 121.638 73.96H127.514C127.86 73.96 128.155 74.0813 128.398 74.324C128.675 74.5667 128.814 74.8787 128.814 75.26V77.184C129.611 76.1093 130.668 75.2253 131.986 74.532C133.303 73.804 134.932 73.44 136.874 73.44C138.607 73.44 140.132 73.7173 141.45 74.272C142.767 74.792 143.894 75.572 144.83 76.612C145.766 77.652 146.494 78.9173 147.014 80.408C147.568 81.8987 147.88 83.6147 147.95 85.556C147.984 86.2493 148.002 86.8907 148.002 87.48C148.002 88.0693 147.984 88.7107 147.95 89.404C147.88 91.276 147.586 92.9573 147.066 94.448C146.546 95.9387 145.818 97.204 144.882 98.244C143.946 99.284 142.802 100.099 141.45 100.688C140.132 101.243 138.607 101.52 136.874 101.52C135.175 101.52 133.684 101.225 132.402 100.636C131.154 100.012 130.114 99.1453 129.282 98.036V109.58C129.282 109.961 129.16 110.273 128.918 110.516C128.675 110.759 128.363 110.88 127.982 110.88H121.638ZM134.066 94.552C135.244 94.552 136.163 94.3093 136.822 93.824C137.48 93.3387 137.948 92.68 138.226 91.848C138.538 91.016 138.728 90.0973 138.798 89.092C138.867 88.0173 138.867 86.9427 138.798 85.868C138.728 84.8627 138.538 83.944 138.226 83.112C137.948 82.28 137.48 81.6213 136.822 81.136C136.163 80.6507 135.244 80.408 134.066 80.408C132.922 80.408 132.003 80.668 131.31 81.188C130.616 81.6733 130.114 82.3147 129.802 83.112C129.49 83.9093 129.316 84.776 129.282 85.712C129.247 86.3707 129.23 87.012 129.23 87.636C129.23 88.26 129.247 88.9187 129.282 89.612C129.316 90.4787 129.507 91.2933 129.854 92.056C130.2 92.784 130.72 93.3907 131.414 93.876C132.107 94.3267 132.991 94.552 134.066 94.552ZM154.442 101C154.061 101 153.749 100.879 153.506 100.636C153.264 100.393 153.142 100.081 153.142 99.7V65.38C153.142 64.9987 153.264 64.6867 153.506 64.444C153.749 64.2013 154.061 64.08 154.442 64.08H160.578C160.96 64.08 161.272 64.2013 161.514 64.444C161.757 64.6867 161.878 64.9987 161.878 65.38V99.7C161.878 100.081 161.757 100.393 161.514 100.636C161.272 100.879 160.96 101 160.578 101H154.442ZM176.133 101.52C174.261 101.52 172.58 101.173 171.089 100.48C169.633 99.752 168.472 98.7813 167.605 97.568C166.738 96.3547 166.305 94.9853 166.305 93.46C166.305 90.9987 167.31 89.0573 169.321 87.636C171.332 86.18 174.001 85.192 177.329 84.672L183.829 83.684V82.956C183.829 81.708 183.569 80.7547 183.049 80.096C182.529 79.4373 181.576 79.108 180.189 79.108C179.218 79.108 178.421 79.2987 177.797 79.68C177.208 80.0613 176.74 80.5813 176.393 81.24C176.081 81.6907 175.648 81.916 175.093 81.916H169.269C168.888 81.916 168.593 81.812 168.385 81.604C168.177 81.3613 168.09 81.084 168.125 80.772C168.125 80.148 168.35 79.4373 168.801 78.64C169.286 77.808 170.014 76.9933 170.985 76.196C171.956 75.3987 173.204 74.74 174.729 74.22C176.254 73.7 178.092 73.44 180.241 73.44C182.494 73.44 184.418 73.7 186.013 74.22C187.608 74.74 188.89 75.468 189.861 76.404C190.866 77.34 191.612 78.4493 192.097 79.732C192.582 80.98 192.825 82.3667 192.825 83.892V99.7C192.825 100.081 192.686 100.393 192.409 100.636C192.166 100.879 191.872 101 191.525 101H185.493C185.112 101 184.8 100.879 184.557 100.636C184.314 100.393 184.193 100.081 184.193 99.7V97.88C183.742 98.5387 183.136 99.1453 182.373 99.7C181.61 100.255 180.709 100.688 179.669 101C178.664 101.347 177.485 101.52 176.133 101.52ZM178.577 95.592C179.582 95.592 180.484 95.384 181.281 94.968C182.113 94.5173 182.754 93.8413 183.205 92.94C183.69 92.004 183.933 90.8427 183.933 89.456V88.728L179.513 89.508C177.884 89.7853 176.688 90.2187 175.925 90.808C175.197 91.3627 174.833 92.0213 174.833 92.784C174.833 93.3733 175.006 93.876 175.353 94.292C175.7 94.708 176.15 95.0373 176.705 95.28C177.26 95.488 177.884 95.592 178.577 95.592ZM199.993 101C199.612 101 199.3 100.879 199.057 100.636C198.814 100.393 198.693 100.081 198.693 99.7V75.26C198.693 74.8787 198.814 74.5667 199.057 74.324C199.3 74.0813 199.612 73.96 199.993 73.96H205.973C206.354 73.96 206.666 74.0813 206.909 74.324C207.152 74.5667 207.273 74.8787 207.273 75.26V77.236C208.174 76.1613 209.353 75.26 210.809 74.532C212.265 73.804 213.981 73.44 215.957 73.44C217.968 73.44 219.736 73.8907 221.261 74.792C222.821 75.6933 224.034 77.028 224.901 78.796C225.802 80.5293 226.253 82.6613 226.253 85.192V99.7C226.253 100.081 226.114 100.393 225.837 100.636C225.594 100.879 225.3 101 224.953 101H218.401C218.054 101 217.742 100.879 217.465 100.636C217.222 100.393 217.101 100.081 217.101 99.7V85.504C217.101 83.8747 216.702 82.6267 215.905 81.76C215.142 80.8587 213.998 80.408 212.473 80.408C211.052 80.408 209.908 80.8587 209.041 81.76C208.209 82.6267 207.793 83.8747 207.793 85.504V99.7C207.793 100.081 207.654 100.393 207.377 100.636C207.134 100.879 206.84 101 206.493 101H199.993ZM233.356 101C232.975 101 232.663 100.879 232.42 100.636C232.178 100.393 232.056 100.081 232.056 99.7V75.26C232.056 74.8787 232.178 74.5667 232.42 74.324C232.663 74.0813 232.975 73.96 233.356 73.96H239.492C239.839 73.96 240.134 74.0813 240.376 74.324C240.654 74.5667 240.792 74.8787 240.792 75.26V99.7C240.792 100.081 240.654 100.393 240.376 100.636C240.134 100.879 239.839 101 239.492 101H233.356ZM233.304 70.06C232.923 70.06 232.611 69.9387 232.368 69.696C232.126 69.4533 232.004 69.1413 232.004 68.76V64.132C232.004 63.7507 232.126 63.4387 232.368 63.196C232.611 62.9187 232.923 62.78 233.304 62.78H239.492C239.874 62.78 240.186 62.9187 240.428 63.196C240.706 63.4387 240.844 63.7507 240.844 64.132V68.76C240.844 69.1413 240.706 69.4533 240.428 69.696C240.186 69.9387 239.874 70.06 239.492 70.06H233.304ZM248.184 101C247.803 101 247.491 100.879 247.248 100.636C247.006 100.393 246.884 100.081 246.884 99.7V65.38C246.884 64.9987 247.006 64.6867 247.248 64.444C247.491 64.2013 247.803 64.08 248.184 64.08H254.32C254.702 64.08 255.014 64.2013 255.256 64.444C255.499 64.6867 255.62 64.9987 255.62 65.38V99.7C255.62 100.081 255.499 100.393 255.256 100.636C255.014 100.879 254.702 101 254.32 101H248.184ZM263.063 101C262.682 101 262.37 100.879 262.127 100.636C261.885 100.393 261.763 100.081 261.763 99.7V65.38C261.763 64.9987 261.885 64.6867 262.127 64.444C262.37 64.2013 262.682 64.08 263.063 64.08H269.719C270.101 64.08 270.413 64.2013 270.655 64.444C270.898 64.6867 271.019 64.9987 271.019 65.38V76.976C271.955 75.9013 273.099 75.052 274.451 74.428C275.838 73.7693 277.433 73.44 279.235 73.44C281.246 73.44 283.031 73.8907 284.591 74.792C286.186 75.6933 287.434 77.028 288.335 78.796C289.237 80.5293 289.687 82.6613 289.687 85.192V99.7C289.687 100.081 289.566 100.393 289.323 100.636C289.081 100.879 288.769 101 288.387 101H281.679C281.333 101 281.021 100.879 280.743 100.636C280.501 100.393 280.379 100.081 280.379 99.7V85.504C280.379 83.8747 279.981 82.6267 279.183 81.76C278.421 80.8587 277.277 80.408 275.751 80.408C274.33 80.408 273.186 80.8587 272.319 81.76C271.453 82.6267 271.019 83.8747 271.019 85.504V99.7C271.019 100.081 270.898 100.393 270.655 100.636C270.413 100.879 270.101 101 269.719 101H263.063ZM303.696 101.52C301.824 101.52 300.142 101.173 298.652 100.48C297.196 99.752 296.034 98.7813 295.168 97.568C294.301 96.3547 293.868 94.9853 293.868 93.46C293.868 90.9987 294.873 89.0573 296.884 87.636C298.894 86.18 301.564 85.192 304.892 84.672L311.392 83.684V82.956C311.392 81.708 311.132 80.7547 310.612 80.096C310.092 79.4373 309.138 79.108 307.752 79.108C306.781 79.108 305.984 79.2987 305.36 79.68C304.77 80.0613 304.302 80.5813 303.956 81.24C303.644 81.6907 303.21 81.916 302.656 81.916H296.832C296.45 81.916 296.156 81.812 295.948 81.604C295.74 81.3613 295.653 81.084 295.688 80.772C295.688 80.148 295.913 79.4373 296.364 78.64C296.849 77.808 297.577 76.9933 298.548 76.196C299.518 75.3987 300.766 74.74 302.292 74.22C303.817 73.7 305.654 73.44 307.804 73.44C310.057 73.44 311.981 73.7 313.576 74.22C315.17 74.74 316.453 75.468 317.424 76.404C318.429 77.34 319.174 78.4493 319.66 79.732C320.145 80.98 320.388 82.3667 320.388 83.892V99.7C320.388 100.081 320.249 100.393 319.972 100.636C319.729 100.879 319.434 101 319.088 101H313.056C312.674 101 312.362 100.879 312.12 100.636C311.877 100.393 311.756 100.081 311.756 99.7V97.88C311.305 98.5387 310.698 99.1453 309.936 99.7C309.173 100.255 308.272 100.688 307.232 101C306.226 101.347 305.048 101.52 303.696 101.52ZM306.14 95.592C307.145 95.592 308.046 95.384 308.844 94.968C309.676 94.5173 310.317 93.8413 310.768 92.94C311.253 92.004 311.496 90.8427 311.496 89.456V88.728L307.076 89.508C305.446 89.7853 304.25 90.2187 303.488 90.808C302.76 91.3627 302.396 92.0213 302.396 92.784C302.396 93.3733 302.569 93.876 302.916 94.292C303.262 94.708 303.713 95.0373 304.268 95.28C304.822 95.488 305.446 95.592 306.14 95.592ZM349.754 101.52C347.188 101.52 344.918 101.052 342.942 100.116C340.966 99.18 339.388 97.828 338.21 96.06C337.066 94.2573 336.442 92.108 336.338 89.612C336.303 89.0573 336.286 88.364 336.286 87.532C336.286 86.6653 336.303 85.9547 336.338 85.4C336.442 82.8693 337.066 80.72 338.21 78.952C339.354 77.1493 340.914 75.78 342.89 74.844C344.9 73.908 347.188 73.44 349.754 73.44C352.146 73.44 354.191 73.7867 355.89 74.48C357.588 75.1387 358.975 75.9707 360.05 76.976C361.124 77.9813 361.922 79.0213 362.442 80.096C362.996 81.136 363.291 82.0547 363.326 82.852C363.36 83.1987 363.239 83.5107 362.962 83.788C362.684 84.0307 362.372 84.152 362.026 84.152H355.422C355.04 84.152 354.746 84.0653 354.538 83.892C354.33 83.7187 354.139 83.4587 353.966 83.112C353.55 82.0373 353.012 81.2747 352.354 80.824C351.73 80.3733 350.915 80.148 349.91 80.148C348.523 80.148 347.448 80.5987 346.686 81.5C345.958 82.4013 345.559 83.788 345.49 85.66C345.455 87.0467 345.455 88.2773 345.49 89.352C345.559 91.2587 345.958 92.6453 346.686 93.512C347.448 94.3787 348.523 94.812 349.91 94.812C350.984 94.812 351.834 94.5867 352.458 94.136C353.082 93.6853 353.584 92.9227 353.966 91.848C354.139 91.5013 354.33 91.2413 354.538 91.068C354.746 90.8947 355.04 90.808 355.422 90.808H362.026C362.372 90.808 362.684 90.9467 362.962 91.224C363.239 91.4667 363.36 91.7613 363.326 92.108C363.291 92.6973 363.118 93.3907 362.806 94.188C362.494 94.9507 362.008 95.7653 361.35 96.632C360.691 97.4987 359.824 98.3133 358.75 99.076C357.71 99.804 356.444 100.393 354.954 100.844C353.463 101.295 351.73 101.52 349.754 101.52ZM369.298 101C368.916 101 368.604 100.879 368.362 100.636C368.119 100.393 367.998 100.081 367.998 99.7V65.38C367.998 64.9987 368.119 64.6867 368.362 64.444C368.604 64.2013 368.916 64.08 369.298 64.08H375.954C376.335 64.08 376.647 64.2013 376.89 64.444C377.132 64.6867 377.254 64.9987 377.254 65.38V76.976C378.19 75.9013 379.334 75.052 380.686 74.428C382.072 73.7693 383.667 73.44 385.47 73.44C387.48 73.44 389.266 73.8907 390.826 74.792C392.42 75.6933 393.668 77.028 394.57 78.796C395.471 80.5293 395.922 82.6613 395.922 85.192V99.7C395.922 100.081 395.8 100.393 395.558 100.636C395.315 100.879 395.003 101 394.622 101H387.914C387.567 101 387.255 100.879 386.978 100.636C386.735 100.393 386.614 100.081 386.614 99.7V85.504C386.614 83.8747 386.215 82.6267 385.418 81.76C384.655 80.8587 383.511 80.408 381.986 80.408C380.564 80.408 379.42 80.8587 378.554 81.76C377.687 82.6267 377.254 83.8747 377.254 85.504V99.7C377.254 100.081 377.132 100.393 376.89 100.636C376.647 100.879 376.335 101 375.954 101H369.298ZM409.93 101.52C408.058 101.52 406.377 101.173 404.886 100.48C403.43 99.752 402.269 98.7813 401.402 97.568C400.535 96.3547 400.102 94.9853 400.102 93.46C400.102 90.9987 401.107 89.0573 403.118 87.636C405.129 86.18 407.798 85.192 411.126 84.672L417.626 83.684V82.956C417.626 81.708 417.366 80.7547 416.846 80.096C416.326 79.4373 415.373 79.108 413.986 79.108C413.015 79.108 412.218 79.2987 411.594 79.68C411.005 80.0613 410.537 80.5813 410.19 81.24C409.878 81.6907 409.445 81.916 408.89 81.916H403.066C402.685 81.916 402.39 81.812 402.182 81.604C401.974 81.3613 401.887 81.084 401.922 80.772C401.922 80.148 402.147 79.4373 402.598 78.64C403.083 77.808 403.811 76.9933 404.782 76.196C405.753 75.3987 407.001 74.74 408.526 74.22C410.051 73.7 411.889 73.44 414.038 73.44C416.291 73.44 418.215 73.7 419.81 74.22C421.405 74.74 422.687 75.468 423.658 76.404C424.663 77.34 425.409 78.4493 425.894 79.732C426.379 80.98 426.622 82.3667 426.622 83.892V99.7C426.622 100.081 426.483 100.393 426.206 100.636C425.963 100.879 425.669 101 425.322 101H419.29C418.909 101 418.597 100.879 418.354 100.636C418.111 100.393 417.99 100.081 417.99 99.7V97.88C417.539 98.5387 416.933 99.1453 416.17 99.7C415.407 100.255 414.506 100.688 413.466 101C412.461 101.347 411.282 101.52 409.93 101.52ZM412.374 95.592C413.379 95.592 414.281 95.384 415.078 94.968C415.91 94.5173 416.551 93.8413 417.002 92.94C417.487 92.004 417.73 90.8427 417.73 89.456V88.728L413.31 89.508C411.681 89.7853 410.485 90.2187 409.722 90.808C408.994 91.3627 408.63 92.0213 408.63 92.784C408.63 93.3733 408.803 93.876 409.15 94.292C409.497 94.708 409.947 95.0373 410.502 95.28C411.057 95.488 411.681 95.592 412.374 95.592ZM446.119 101C443.9 101 441.976 100.653 440.347 99.96C438.752 99.232 437.521 98.1227 436.655 96.632C435.788 95.1067 435.355 93.148 435.355 90.756V80.772H431.299C430.917 80.772 430.588 80.6507 430.311 80.408C430.068 80.1653 429.947 79.8533 429.947 79.472V75.26C429.947 74.8787 430.068 74.5667 430.311 74.324C430.588 74.0813 430.917 73.96 431.299 73.96H435.355V65.38C435.355 64.9987 435.476 64.6867 435.719 64.444C435.996 64.2013 436.308 64.08 436.655 64.08H442.687C443.068 64.08 443.38 64.2013 443.623 64.444C443.865 64.6867 443.987 64.9987 443.987 65.38V73.96H450.487C450.868 73.96 451.18 74.0813 451.423 74.324C451.665 74.5667 451.787 74.8787 451.787 75.26V79.472C451.787 79.8533 451.665 80.1653 451.423 80.408C451.18 80.6507 450.868 80.772 450.487 80.772H443.987V90.028C443.987 91.2067 444.212 92.1427 444.663 92.836C445.113 93.5293 445.876 93.876 446.951 93.876H450.955C451.336 93.876 451.648 93.9973 451.891 94.24C452.133 94.4827 452.255 94.7947 452.255 95.176V99.7C452.255 100.081 452.133 100.393 451.891 100.636C451.648 100.879 451.336 101 450.955 101H446.119ZM464.672 101.52C462.8 101.52 461.119 101.173 459.628 100.48C458.172 99.752 457.011 98.7813 456.144 97.568C455.278 96.3547 454.844 94.9853 454.844 93.46C454.844 90.9987 455.85 89.0573 457.86 87.636C459.871 86.18 462.54 85.192 465.868 84.672L472.368 83.684V82.956C472.368 81.708 472.108 80.7547 471.588 80.096C471.068 79.4373 470.115 79.108 468.728 79.108C467.758 79.108 466.96 79.2987 466.336 79.68C465.747 80.0613 465.279 80.5813 464.932 81.24C464.62 81.6907 464.187 81.916 463.632 81.916H457.808C457.427 81.916 457.132 81.812 456.924 81.604C456.716 81.3613 456.63 81.084 456.664 80.772C456.664 80.148 456.89 79.4373 457.34 78.64C457.826 77.808 458.554 76.9933 459.524 76.196C460.495 75.3987 461.743 74.74 463.268 74.22C464.794 73.7 466.631 73.44 468.78 73.44C471.034 73.44 472.958 73.7 474.552 74.22C476.147 74.74 477.43 75.468 478.4 76.404C479.406 77.34 480.151 78.4493 480.636 79.732C481.122 80.98 481.364 82.3667 481.364 83.892V99.7C481.364 100.081 481.226 100.393 480.948 100.636C480.706 100.879 480.411 101 480.064 101H474.032C473.651 101 473.339 100.879 473.096 100.636C472.854 100.393 472.732 100.081 472.732 99.7V97.88C472.282 98.5387 471.675 99.1453 470.912 99.7C470.15 100.255 469.248 100.688 468.208 101C467.203 101.347 466.024 101.52 464.672 101.52ZM467.116 95.592C468.122 95.592 469.023 95.384 469.82 94.968C470.652 94.5173 471.294 93.8413 471.744 92.94C472.23 92.004 472.472 90.8427 472.472 89.456V88.728L468.052 89.508C466.423 89.7853 465.227 90.2187 464.464 90.808C463.736 91.3627 463.372 92.0213 463.372 92.784C463.372 93.3733 463.546 93.876 463.892 94.292C464.239 94.708 464.69 95.0373 465.244 95.28C465.799 95.488 466.423 95.592 467.116 95.592ZM488.272 101C487.891 101 487.579 100.879 487.336 100.636C487.093 100.393 486.972 100.081 486.972 99.7V93.096C486.972 92.7493 487.093 92.4547 487.336 92.212C487.579 91.9347 487.891 91.796 488.272 91.796H494.824C495.205 91.796 495.517 91.9347 495.76 92.212C496.037 92.4547 496.176 92.7493 496.176 93.096V99.7C496.176 100.081 496.037 100.393 495.76 100.636C495.517 100.879 495.205 101 494.824 101H488.272Z" fill="white"/>
<path d="M376.581 39C376.234 39 375.922 38.8787 375.645 38.636C375.402 38.3933 375.281 38.0813 375.281 37.7V18.772H371.329C370.947 18.772 370.635 18.6507 370.393 18.408C370.15 18.1653 370.029 17.8533 370.029 17.472V13.26C370.029 12.8787 370.15 12.5667 370.393 12.324C370.635 12.0813 370.947 11.96 371.329 11.96H375.281V10.296C375.281 7.93867 375.731 6.04933 376.633 4.628C377.569 3.172 378.886 2.132 380.585 1.508C382.283 0.849333 384.311 0.52 386.669 0.52H399.981C400.327 0.52 400.622 0.641332 400.865 0.883998C401.142 1.12667 401.281 1.43867 401.281 1.82V6.032C401.281 6.41333 401.142 6.72533 400.865 6.968C400.622 7.21066 400.327 7.332 399.981 7.332H387.085C385.906 7.332 385.074 7.60933 384.589 8.164C384.138 8.71866 383.913 9.516 383.913 10.556V11.96H399.981C400.327 11.96 400.622 12.0813 400.865 12.324C401.142 12.5667 401.281 12.8787 401.281 13.26V37.7C401.281 38.0813 401.142 38.3933 400.865 38.636C400.622 38.8787 400.327 39 399.981 39H393.949C393.567 39 393.255 38.8787 393.013 38.636C392.77 38.3933 392.649 38.0813 392.649 37.7V18.772H383.913V37.7C383.913 38.0813 383.791 38.3933 383.549 38.636C383.306 38.8787 382.994 39 382.613 39H376.581ZM410.278 39C409.897 39 409.585 38.8787 409.342 38.636C409.099 38.3933 408.978 38.0813 408.978 37.7V13.26C408.978 12.8787 409.099 12.5667 409.342 12.324C409.585 12.0813 409.897 11.96 410.278 11.96H416.258C416.639 11.96 416.951 12.0813 417.194 12.324C417.437 12.5667 417.558 12.8787 417.558 13.26V15.236C418.459 14.1613 419.638 13.26 421.094 12.532C422.55 11.804 424.266 11.44 426.242 11.44C428.253 11.44 430.021 11.8907 431.546 12.792C433.106 13.6933 434.319 15.028 435.186 16.796C436.087 18.5293 436.538 20.6613 436.538 23.192V37.7C436.538 38.0813 436.399 38.3933 436.122 38.636C435.879 38.8787 435.585 39 435.238 39H428.686C428.339 39 428.027 38.8787 427.75 38.636C427.507 38.3933 427.386 38.0813 427.386 37.7V23.504C427.386 21.8747 426.987 20.6267 426.19 19.76C425.427 18.8587 424.283 18.408 422.758 18.408C421.337 18.408 420.193 18.8587 419.326 19.76C418.494 20.6267 418.078 21.8747 418.078 23.504V37.7C418.078 38.0813 417.939 38.3933 417.662 38.636C417.419 38.8787 417.125 39 416.778 39H410.278ZM450.453 39.52C448.581 39.52 446.9 39.1733 445.409 38.48C443.953 37.752 442.792 36.7813 441.925 35.568C441.059 34.3547 440.625 32.9853 440.625 31.46C440.625 28.9987 441.631 27.0573 443.641 25.636C445.652 24.18 448.321 23.192 451.649 22.672L458.149 21.684V20.956C458.149 19.708 457.889 18.7547 457.369 18.096C456.849 17.4373 455.896 17.108 454.509 17.108C453.539 17.108 452.741 17.2987 452.117 17.68C451.528 18.0613 451.06 18.5813 450.713 19.24C450.401 19.6907 449.968 19.916 449.413 19.916H443.589C443.208 19.916 442.913 19.812 442.705 19.604C442.497 19.3613 442.411 19.084 442.445 18.772C442.445 18.148 442.671 17.4373 443.121 16.64C443.607 15.808 444.335 14.9933 445.305 14.196C446.276 13.3987 447.524 12.74 449.049 12.22C450.575 11.7 452.412 11.44 454.561 11.44C456.815 11.44 458.739 11.7 460.333 12.22C461.928 12.74 463.211 13.468 464.181 14.404C465.187 15.34 465.932 16.4493 466.417 17.732C466.903 18.98 467.145 20.3667 467.145 21.892V37.7C467.145 38.0813 467.007 38.3933 466.729 38.636C466.487 38.8787 466.192 39 465.845 39H459.813C459.432 39 459.12 38.8787 458.877 38.636C458.635 38.3933 458.513 38.0813 458.513 37.7V35.88C458.063 36.5387 457.456 37.1453 456.693 37.7C455.931 38.2547 455.029 38.688 453.989 39C452.984 39.3467 451.805 39.52 450.453 39.52ZM452.897 33.592C453.903 33.592 454.804 33.384 455.601 32.968C456.433 32.5173 457.075 31.8413 457.525 30.94C458.011 30.004 458.253 28.8427 458.253 27.456V26.728L453.833 27.508C452.204 27.7853 451.008 28.2187 450.245 28.808C449.517 29.3627 449.153 30.0213 449.153 30.784C449.153 31.3733 449.327 31.876 449.673 32.292C450.02 32.708 450.471 33.0373 451.025 33.28C451.58 33.488 452.204 33.592 452.897 33.592ZM474.313 39C473.932 39 473.62 38.8787 473.377 38.636C473.135 38.3933 473.013 38.0813 473.013 37.7V13.26C473.013 12.8787 473.135 12.5667 473.377 12.324C473.62 12.0813 473.932 11.96 474.313 11.96H480.293C480.675 11.96 480.987 12.0813 481.229 12.324C481.472 12.5667 481.593 12.8787 481.593 13.26V15.236C482.495 14.1613 483.673 13.26 485.129 12.532C486.585 11.804 488.301 11.44 490.277 11.44C492.288 11.44 494.056 11.8907 495.581 12.792C497.141 13.6933 498.355 15.028 499.221 16.796C500.123 18.5293 500.573 20.6613 500.573 23.192V37.7C500.573 38.0813 500.435 38.3933 500.157 38.636C499.915 38.8787 499.62 39 499.273 39H492.721C492.375 39 492.063 38.8787 491.785 38.636C491.543 38.3933 491.421 38.0813 491.421 37.7V23.504C491.421 21.8747 491.023 20.6267 490.225 19.76C489.463 18.8587 488.319 18.408 486.793 18.408C485.372 18.408 484.228 18.8587 483.361 19.76C482.529 20.6267 482.113 21.8747 482.113 23.504V37.7C482.113 38.0813 481.975 38.3933 481.697 38.636C481.455 38.8787 481.16 39 480.813 39H474.313ZM518.753 50.44C517.851 50.44 517.019 50.284 516.257 49.972C515.494 49.66 514.957 49.296 514.645 48.88C514.333 48.464 514.35 48.1 514.697 47.788L515.633 46.956C515.945 46.6787 516.205 46.592 516.413 46.696C516.655 46.8 516.95 46.9387 517.297 47.112C517.643 47.32 518.129 47.424 518.753 47.424C519.307 47.424 519.741 47.268 520.053 46.956C520.365 46.644 520.521 46.28 520.521 45.864C520.521 45.4133 520.365 45.032 520.053 44.72C519.741 44.4427 519.307 44.304 518.753 44.304C518.371 44.304 517.99 44.356 517.609 44.46C517.262 44.5987 516.95 44.668 516.673 44.668C516.395 44.7027 516.118 44.616 515.841 44.408L514.853 43.368C514.645 43.16 514.541 42.9347 514.541 42.692C514.575 42.4493 514.697 42.12 514.905 41.704L515.945 39.312C512.859 38.8267 510.363 37.5787 508.457 35.568C506.55 33.5573 505.527 30.9053 505.389 27.612C505.354 27.0573 505.337 26.364 505.337 25.532C505.337 24.6653 505.354 23.9547 505.389 23.4C505.493 20.8693 506.117 18.72 507.261 16.952C508.405 15.1493 509.965 13.78 511.941 12.844C513.951 11.908 516.239 11.44 518.805 11.44C521.197 11.44 523.242 11.7867 524.941 12.48C526.639 13.1387 528.026 13.9707 529.101 14.976C530.175 15.9813 530.973 17.0213 531.493 18.096C532.047 19.136 532.342 20.0547 532.377 20.852C532.411 21.1987 532.29 21.5107 532.013 21.788C531.735 22.0307 531.423 22.152 531.077 22.152H524.473C524.091 22.152 523.797 22.0653 523.589 21.892C523.381 21.7187 523.19 21.4587 523.017 21.112C522.601 20.0373 522.063 19.2747 521.405 18.824C520.781 18.3733 519.966 18.148 518.961 18.148C517.574 18.148 516.499 18.5987 515.737 19.5C515.009 20.4013 514.61 21.788 514.541 23.66C514.506 25.0467 514.506 26.2773 514.541 27.352C514.61 29.2587 515.009 30.6453 515.737 31.512C516.499 32.3787 517.574 32.812 518.961 32.812C520.035 32.812 520.885 32.5867 521.509 32.136C522.133 31.6853 522.635 30.9227 523.017 29.848C523.19 29.5013 523.381 29.2413 523.589 29.068C523.797 28.8947 524.091 28.808 524.473 28.808H531.077C531.423 28.808 531.735 28.9467 532.013 29.224C532.29 29.4667 532.411 29.7613 532.377 30.108C532.342 30.8013 532.065 31.6853 531.545 32.76C531.059 33.8 530.297 34.84 529.257 35.88C528.251 36.8853 526.899 37.7347 525.201 38.428C523.537 39.1213 521.474 39.4853 519.013 39.52L517.973 41.6C518.181 41.496 518.458 41.4093 518.805 41.34C519.186 41.3053 519.481 41.288 519.689 41.288C520.971 41.288 521.977 41.704 522.705 42.536C523.467 43.368 523.849 44.46 523.849 45.812C523.849 47.1293 523.398 48.2213 522.497 49.088C521.595 49.9893 520.347 50.44 518.753 50.44ZM545.16 39.52C543.288 39.52 541.607 39.1733 540.116 38.48C538.66 37.752 537.499 36.7813 536.632 35.568C535.766 34.3547 535.332 32.9853 535.332 31.46C535.332 28.9987 536.338 27.0573 538.348 25.636C540.359 24.18 543.028 23.192 546.356 22.672L552.856 21.684V20.956C552.856 19.708 552.596 18.7547 552.076 18.096C551.556 17.4373 550.603 17.108 549.216 17.108C548.246 17.108 547.448 17.2987 546.824 17.68C546.235 18.0613 545.767 18.5813 545.42 19.24C545.108 19.6907 544.675 19.916 544.12 19.916H538.296C537.915 19.916 537.62 19.812 537.412 19.604C537.204 19.3613 537.118 19.084 537.152 18.772C537.152 18.148 537.378 17.4373 537.828 16.64C538.314 15.808 539.042 14.9933 540.012 14.196C540.983 13.3987 542.231 12.74 543.756 12.22C545.282 11.7 547.119 11.44 549.268 11.44C551.522 11.44 553.446 11.7 555.04 12.22C556.635 12.74 557.918 13.468 558.888 14.404C559.894 15.34 560.639 16.4493 561.124 17.732C561.61 18.98 561.852 20.3667 561.852 21.892V37.7C561.852 38.0813 561.714 38.3933 561.436 38.636C561.194 38.8787 560.899 39 560.552 39H554.52C554.139 39 553.827 38.8787 553.584 38.636C553.342 38.3933 553.22 38.0813 553.22 37.7V35.88C552.77 36.5387 552.163 37.1453 551.4 37.7C550.638 38.2547 549.736 38.688 548.696 39C547.691 39.3467 546.512 39.52 545.16 39.52ZM547.604 33.592C548.61 33.592 549.511 33.384 550.308 32.968C551.14 32.5173 551.782 31.8413 552.232 30.94C552.718 30.004 552.96 28.8427 552.96 27.456V26.728L548.54 27.508C546.911 27.7853 545.715 28.2187 544.952 28.808C544.224 29.3627 543.86 30.0213 543.86 30.784C543.86 31.3733 544.034 31.876 544.38 32.292C544.727 32.708 545.178 33.0373 545.732 33.28C546.287 33.488 546.911 33.592 547.604 33.592ZM578.848 39.52C576.595 39.52 574.671 39.2773 573.076 38.792C571.516 38.272 570.234 37.648 569.228 36.92C568.258 36.192 567.53 35.4467 567.044 34.684C566.559 33.8867 566.299 33.2107 566.264 32.656C566.23 32.2747 566.351 31.9627 566.628 31.72C566.906 31.4427 567.2 31.304 567.512 31.304H573.44C573.544 31.304 573.631 31.3213 573.7 31.356C573.77 31.3907 573.874 31.46 574.012 31.564C574.463 31.8067 574.914 32.1187 575.364 32.5C575.815 32.8467 576.335 33.1587 576.924 33.436C577.514 33.7133 578.224 33.852 579.056 33.852C580.027 33.852 580.842 33.6613 581.5 33.28C582.159 32.8987 582.488 32.3267 582.488 31.564C582.488 31.0093 582.332 30.5587 582.02 30.212C581.708 29.8307 581.067 29.4667 580.096 29.12C579.16 28.7733 577.739 28.4267 575.832 28.08C574.03 27.664 572.452 27.1267 571.1 26.468C569.748 25.7747 568.708 24.8907 567.98 23.816C567.252 22.7067 566.888 21.372 566.888 19.812C566.888 18.4253 567.339 17.0907 568.24 15.808C569.142 14.5253 570.459 13.4853 572.192 12.688C573.926 11.856 576.058 11.44 578.588 11.44C580.599 11.44 582.332 11.6827 583.788 12.168C585.279 12.6187 586.527 13.208 587.532 13.936C588.572 14.664 589.352 15.4093 589.872 16.172C590.392 16.9347 590.67 17.628 590.704 18.252C590.739 18.5987 590.635 18.9107 590.392 19.188C590.15 19.4307 589.872 19.552 589.56 19.552H584.152C584.014 19.552 583.875 19.5347 583.736 19.5C583.598 19.4307 583.476 19.3613 583.372 19.292C582.956 19.084 582.54 18.8067 582.124 18.46C581.708 18.1133 581.223 17.8013 580.668 17.524C580.114 17.2467 579.42 17.108 578.588 17.108C577.652 17.108 576.924 17.316 576.404 17.732C575.884 18.148 575.624 18.6853 575.624 19.344C575.624 19.7947 575.763 20.2107 576.04 20.592C576.352 20.9733 576.959 21.32 577.86 21.632C578.796 21.944 580.235 22.2907 582.176 22.672C584.568 23.0533 586.475 23.6773 587.896 24.544C589.318 25.376 590.323 26.364 590.912 27.508C591.502 28.6173 591.796 29.796 591.796 31.044C591.796 32.708 591.294 34.1813 590.288 35.464C589.318 36.7467 587.862 37.752 585.92 38.48C583.979 39.1733 581.622 39.52 578.848 39.52Z" fill="#7978D9"/>
</svg>
